<?xml version="1.0" encoding="utf-8"?>
<!-- Svg Vector Icons : http://www.onlinewebfonts.com/icon -->
<!DOCTYPE svg PUBLIC "-//W3C//DTD SVG 1.1//EN" "http://www.w3.org/Graphics/SVG/1.1/DTD/svg11.dtd">
<svg version="1.1" xmlns="http://www.w3.org/2000/svg" xmlns:xlink="http://www.w3.org/1999/xlink" x="0px" y="0px" viewBox="0 0 256 256" enable-background="new 0 0 256 256" xml:space="preserve">
<metadata> Svg Vector Icons : http://www.onlinewebfonts.com/icon </metadata>
<g><g><g><path fill="#000000" d="M173.4,55.4c-1.2,1.1-1.2,1.2-1.2,9.5v8.3l4.2,4.5c6,6.3,8.7,10.5,9.6,14.7c0.6,2.7,0.3,5.5-0.9,7.5l-0.9,1.5l-2.7-1.8c-8.2-5.6-18.8-8.3-29.1-7.3c-5.5,0.5-9.1,1.5-14.2,3.9c-5.7,2.8-10.7,7.6-13,12.5l-1.6,3.4l-6.5-0.2c-10.4-0.3-25.1-3.4-36.7-7.5c-6.4-2.3-10.3-4.2-16-7.6c-5.1-3.1-12.2-6.4-18.1-8.4c-5.6-1.9-15.2-4.4-17.4-4.4c-4.2,0-5.5,7.7-2.7,15.7c2.1,6.1,6.2,11.7,11.5,15.4c2.5,1.8,3.4,2.2,8.1,3c8.1,1.5,16.2,3.6,19.8,5c5.4,2.2,9.7,5.7,12.6,10.3l0.8,1.2l-3,2.3l-3,2.3l-2.5-2.1c-14.8-12.5-36.5-11.5-50.1,2.2c-5.5,5.6-9.3,13.5-10.3,21.7C8,178.7,20.1,196,37.8,200.7c9,2.3,19.6,0.8,27.6-4c5.6-3.3,12.8-11.1,14.5-15.7l0.5-1.2h47.4h47.4l1.8,3.4c2.4,4.3,9,11,13.4,13.6c10.7,6.2,24,6.7,35,1.2c4.2-2.1,6.8-4,10.2-7.6c19.6-20.3,9.8-53.9-17.8-61.1c-1.4-0.4-3-0.6-3.4-0.6c-0.7,0-0.5-0.5,1.2-2.2c5.1-5.5,7.3-10.5,7.7-17.9c0.2-4.2,0.1-5.2-1-8.5c-3.8-12.2-17.9-28-34.9-39.2c-5.5-3.6-10.6-6.3-12-6.3C175,54.3,174,54.8,173.4,55.4z M52.6,143.5C62.1,146,69,155,69,165c0,10-7,18.9-16.8,21.4c-13.6,3.5-27.4-7.3-27.4-21.4c0-9.9,6.8-18.9,16.2-21.4C44.2,142.7,49.2,142.6,52.6,143.5z M214.9,143.5c9.3,2.4,16.3,11.5,16.4,21.1c0,10.3-6.9,19.2-16.8,21.8c-13.6,3.5-27.4-7.3-27.4-21.4c0-9.9,6.8-18.9,16.2-21.4C206.6,142.7,211.6,142.6,214.9,143.5z"/></g></g></g>
</svg>