<?xml version="1.0" encoding="utf-8"?>
<!-- Svg Vector Icons : http://www.onlinewebfonts.com/icon -->
<!DOCTYPE svg PUBLIC "-//W3C//DTD SVG 1.1//EN" "http://www.w3.org/Graphics/SVG/1.1/DTD/svg11.dtd">
<svg version="1.1" xmlns="http://www.w3.org/2000/svg" xmlns:xlink="http://www.w3.org/1999/xlink" x="0px" y="0px" viewBox="0 0 256 256" enable-background="new 0 0 256 256" xml:space="preserve">
<metadata> Svg Vector Icons : http://www.onlinewebfonts.com/icon </metadata>
<g><g><g id="Briefcase"><g><path fill="#000000" d="M216.5,54.3h-44.2V39.5c0-16.3-13.2-29.5-29.5-29.5h-29.5C97,10,83.8,23.2,83.8,39.5v14.8H39.5C23.2,54.3,10,67.5,10,83.8v132.8c0,16.3,13.2,29.5,29.5,29.5h177c16.3,0,29.5-13.2,29.5-29.5V83.8C246,67.5,232.8,54.3,216.5,54.3z M113.3,46.9c0-4.1,3.3-7.4,7.4-7.4h14.8c4.1,0,7.4,3.3,7.4,7.4v7.4h-29.5V46.9z M216.5,201.8c0,8.1-6.6,14.8-14.8,14.8H54.3c-8.1,0-14.8-6.6-14.8-14.8v-44.3h59c0,8.1,6.6,14.8,14.8,14.8h29.5c8.1,0,14.8-6.6,14.8-14.8h59L216.5,201.8L216.5,201.8z M216.5,142.8h-59c0-8.1-6.6-14.8-14.8-14.8h-29.5c-8.1,0-14.8,6.6-14.8,14.8h-59V98.5c0-8.1,6.6-14.8,14.8-14.8h147.5c8.1,0,14.8,6.6,14.8,14.8L216.5,142.8L216.5,142.8z"/></g></g><g></g><g></g><g></g><g></g><g></g><g></g><g></g><g></g><g></g><g></g><g></g><g></g><g></g><g></g><g></g></g></g>
</svg>