<?xml version="1.0" encoding="utf-8"?>
<!-- Svg Vector Icons : http://www.onlinewebfonts.com/icon -->
<!DOCTYPE svg PUBLIC "-//W3C//DTD SVG 1.1//EN" "http://www.w3.org/Graphics/SVG/1.1/DTD/svg11.dtd">
<svg version="1.1" xmlns="http://www.w3.org/2000/svg" xmlns:xlink="http://www.w3.org/1999/xlink" x="0px" y="0px" viewBox="0 0 256 256" enable-background="new 0 0 256 256" xml:space="preserve">
<metadata> Svg Vector Icons : http://www.onlinewebfonts.com/icon </metadata>
<g><g><path fill="#000000" d="M128,246c-65.2,0-118-52.8-118-118C10,62.8,62.8,10,128,10c65.2,0,118,52.8,118,118C246,193.2,193.2,246,128,246L128,246L128,246z M216.9,91.9c-4.3-0.4-10.8-5.1-16.3-12.2c-6.6-8.5-9.4-17.3-7-20.9C176.4,43,153.4,33.3,128,33.3c-25.1,0-47.8,9.5-64.9,25c3.3,3.1,0.5,12.5-6.5,21.5c-6,7.8-13.2,12.6-17.5,12.2c-4.6,11.1-7.2,23.3-7.2,36.1c0,52.3,43.1,94.7,96.2,94.7c53.1,0,96.2-42.4,96.2-94.7C224.2,115.2,221.6,103.1,216.9,91.9L216.9,91.9L216.9,91.9z M187.5,147.9c-28.6,0-39.6,29.4-39.6,29.4l0.2,37l-19.4,0.4v0l-2,0l-1.9,0v0l-19.7-0.4l0.2-37c0,0-9.1-29.4-37.6-29.4c-17.9,0-24.9-0.1-24.9-0.1s-5.1-8.3-4.3-26.9c41.3-1.8,32.6-28.5,86.4-29.8v-0.1c0.7,0,1.3,0,1.9,0s1.2,0,1.9,0V91c53.9,1.3,46.7,28.1,88,29.8c0.8,18.6-4.3,26.9-4.3,26.9S205.4,147.9,187.5,147.9L187.5,147.9L187.5,147.9z M127.4,99.3c-19.4,0-35.1,13.5-35.1,30.1c0,16.6,15.7,30.1,35.1,30.1c19.4,0,35.1-13.5,35.1-30.1C162.5,112.8,146.8,99.3,127.4,99.3L127.4,99.3L127.4,99.3z M127.4,151.7c-14.4,0-26-10-26-22.3c0-12.3,11.6-22.3,26-22.3s26,10,26,22.3C153.4,141.8,141.8,151.7,127.4,151.7L127.4,151.7L127.4,151.7z"/></g></g>
</svg>