<?xml version="1.0" encoding="utf-8"?>
<!-- Svg Vector Icons : http://www.onlinewebfonts.com/icon -->
<!DOCTYPE svg PUBLIC "-//W3C//DTD SVG 1.1//EN" "http://www.w3.org/Graphics/SVG/1.1/DTD/svg11.dtd">
<svg version="1.1" xmlns="http://www.w3.org/2000/svg" xmlns:xlink="http://www.w3.org/1999/xlink" x="0px" y="0px" viewBox="0 0 256 256" enable-background="new 0 0 256 256" xml:space="preserve">
<metadata> Svg Vector Icons : http://www.onlinewebfonts.com/icon </metadata>
<g><g><g><path fill="#000000" d="M55,11c-0.6,0.5-1.4,1.5-1.7,2.2c-0.4,1-0.5,10.2-0.4,36.7c0.1,31.6,0.2,35.7,0.9,38.3c1.6,6,5,10.5,11.1,14.7c4.3,3,6.1,5.1,7.2,8.2c1,2.9,1.1,0.5-1,68.6c-1.3,41.2-1.5,53.3-1.1,54.8c1.6,6.2,5.7,9.7,12.8,11c4.6,0.9,15.5,0.4,18.8-0.9c3.7-1.4,6.2-3.5,7.9-6.5c1.3-2.2,1.4-3,1.6-6.9c0.1-2.4-0.9-29.3-2.2-59.7c-1.3-30.4-2.3-56.2-2.1-57.3c0.4-2.8,1.9-6,3.7-7.9c0.8-0.9,3.1-2.7,5-4c4.3-3,7.9-6.9,9.7-10.6c2.7-5.6,2.8-6.3,2.8-43.6c0-26-0.1-34.2-0.6-35.3c-1.4-3.4-7.4-3.6-9.3-0.3c-0.5,0.8-0.6,8.7-0.8,35.9l-0.2,34.9l-1.1,2.6c-1.2,2.9-4.1,6-8.7,9.1c-6.8,4.7-11.2,12.6-11.3,20.5c0,1.4,1.1,28.2,2.4,59.5c2.7,65.1,2.9,58.9-1.8,59.8c-3.2,0.7-12.4,0.4-14.1-0.5c-0.7-0.3-1.4-1.2-1.7-1.8c-0.3-0.8,0.2-22.1,1.4-58.8c2-64.6,2.1-62.5-1-68.7c-2.3-4.7-4.4-7.1-8.8-10.2c-4.6-3.2-6.7-5.6-7.7-8.6c-0.7-2.2-0.8-5.6-1.1-38l-0.2-35.6l-1.5-1.3C59.8,9.7,56.8,9.5,55,11z"/><path fill="#000000" d="M76.9,10.7c-2.6,1.4-2.5,0.5-2.5,34.3c0,30.9,0,31.1,1,32.4c2.1,2.8,6.6,2.8,8.7,0c1-1.3,1-1.7,1.1-32.1c0.1-27.9,0-30.9-0.6-32.4C83.2,10.3,79.6,9.2,76.9,10.7z"/><path fill="#000000" d="M97.4,11.6l-1.6,1.6v31.5v31.5l1.3,1.4c2.3,2.5,5.7,2.6,8,0.2l1.1-1.2V44.6V12.7l-1.5-1.3c-1.2-1.1-1.9-1.3-3.6-1.3C99.3,10,98.8,10.3,97.4,11.6z"/><path fill="#000000" d="M189.5,11c-7.9,2-14.8,6.9-21.1,14.7c-19.1,23.7-25,72.6-12,98.6c2,3.9,5.4,8.6,7.5,10.5l1.5,1.3l0.2,49.6l0.2,49.6l1.3,2.6c1.6,3.2,4.2,5.6,7.7,6.9c2.3,0.9,3.5,1,9.3,1.1c5.5,0,7.1-0.1,9.1-0.9c4-1.5,6.4-3.6,8.1-7.1l1.5-3.1l0.1-110.1c0.1-82.1,0-110.4-0.4-111.4c-1-2.4-2.5-3.1-6.4-3.1C194.3,10.1,191.3,10.5,189.5,11z M191.9,233c-0.3,0.7-1.3,1.4-2.2,1.8c-2,0.7-8,0.7-10.3,0.1c-3.4-1-3.1,3.1-3.1-52.7c0-55.4,0.2-51.8-3-53.8c-5.5-3.4-10-12.7-12.1-25.2c-1.3-7.1-1.1-22.5,0.2-31c2.9-18.8,9-33.4,17.8-42.7c3.5-3.7,6.4-5.7,10.4-7.4l2.6-1.1l0.1,105.3C192.5,210.6,192.4,232,191.9,233z"/></g></g></g>
</svg>