<?xml version="1.0" encoding="utf-8"?>
<!-- Svg Vector Icons : http://www.onlinewebfonts.com/icon -->
<!DOCTYPE svg PUBLIC "-//W3C//DTD SVG 1.1//EN" "http://www.w3.org/Graphics/SVG/1.1/DTD/svg11.dtd">
<svg version="1.1" xmlns="http://www.w3.org/2000/svg" xmlns:xlink="http://www.w3.org/1999/xlink" x="0px" y="0px" viewBox="0 0 256 256" enable-background="new 0 0 256 256" xml:space="preserve">
<metadata> Svg Vector Icons : http://www.onlinewebfonts.com/icon </metadata>
<g><g><path fill="#000000" d="M231.3,83.8c-8.1,0-14.8-6.6-14.8-14.8s6.6-14.8,14.8-14.8S246,60.9,246,69C246,77.1,239.4,83.8,231.3,83.8z M201.8,216.5v14.7c0,8.1-6.6,14.8-14.8,14.8c-8.1,0-14.8-6.6-14.8-14.8v-14.7H83.8v14.7c0,8.1-6.6,14.8-14.7,14.8s-14.8-6.6-14.8-14.8v-14.7c-8.1,0-14.8-6.6-14.8-14.8V69v-2C61,59.2,92.4,54.2,128,54.2s67,5,88.5,12.8v2v132.8C216.5,209.9,209.9,216.5,201.8,216.5z M54.3,187c0,8.1,6.6,14.8,14.8,14.8c8.1,0,14.7-6.6,14.7-14.8s-6.6-14.8-14.7-14.8C60.9,172.3,54.3,178.9,54.3,187z M187,98.5c0-8.1-6.6-14.8-14.8-14.8H83.8c-8.1,0-14.7,6.6-14.7,14.8V128c0,8.1,6.6,14.7,14.7,14.7h88.5c8.1,0,14.8-6.6,14.8-14.7L187,98.5L187,98.5z M187,172.3c-8.1,0-14.8,6.6-14.8,14.8c0,8.1,6.6,14.8,14.8,14.8c8.1,0,14.8-6.6,14.8-14.8C201.8,178.9,195.1,172.3,187,172.3z M24.8,83.8C16.6,83.8,10,77.1,10,69c0-8.1,6.6-14.8,14.8-14.8c8.1,0,14.7,6.6,14.7,14.8S32.9,83.8,24.8,83.8z M39.5,49.5V24.8c0-8.1,6.6-14.8,14.8-14.8h147.5c8.1,0,14.8,6.6,14.8,14.8v24.8c-21.6-6.1-53.2-10-88.5-10C92.7,39.5,61.1,43.4,39.5,49.5z"/></g></g>
</svg>