<?xml version="1.0" encoding="utf-8"?>
<!-- Svg Vector Icons : http://www.onlinewebfonts.com/icon -->
<!DOCTYPE svg PUBLIC "-//W3C//DTD SVG 1.1//EN" "http://www.w3.org/Graphics/SVG/1.1/DTD/svg11.dtd">
<svg version="1.1" xmlns="http://www.w3.org/2000/svg" xmlns:xlink="http://www.w3.org/1999/xlink" x="0px" y="0px" viewBox="0 0 256 256" enable-background="new 0 0 256 256" xml:space="preserve">
<metadata> Svg Vector Icons : http://www.onlinewebfonts.com/icon </metadata>
<g><g><g><path fill="#000000" d="M68.9,64.4C36.5,89.2,10,109.6,10,109.8c0,0.2,3.9,5.6,8.8,11.9c4.8,6.3,9,11.7,9.1,12c0.2,0.2,3.1-1.6,6.4-4.2c3.3-2.5,6.2-4.6,6.5-4.6c0.2,0,0.4,21.3,0.4,55.8v55.8h87h87v-56.1v-56.1l5.8,4.5c3.2,2.4,6.1,4.6,6.4,4.8c0.4,0.2,3.5-3.5,9.8-11.7c7.8-10.2,9.1-12.1,8.5-12.7c-0.4-0.4-9.9-7.8-21.3-16.4L204,77.1L203.9,50l-0.1-27.2h-15.3h-15.3L173,38.1l-0.1,15.3l-22.2-17c-12.2-9.3-22.3-17-22.5-17C127.9,19.5,101.3,39.7,68.9,64.4z M162.4,86.1c18.4,14,34,26.1,34.8,26.7l1.3,1.2v52.6v52.6h-19.9h-19.9V187v-32.4H128H97.3V187v32.4H77.7H58v-52.9v-52.9l34.9-26.7c19.2-14.7,35.1-26.6,35.4-26.5C128.7,60.5,144,72.1,162.4,86.1z"/></g></g></g>
</svg>