<?xml version="1.0" encoding="utf-8"?>
<!-- Svg Vector Icons : http://www.onlinewebfonts.com/icon -->
<!DOCTYPE svg PUBLIC "-//W3C//DTD SVG 1.1//EN" "http://www.w3.org/Graphics/SVG/1.1/DTD/svg11.dtd">
<svg version="1.1" xmlns="http://www.w3.org/2000/svg" xmlns:xlink="http://www.w3.org/1999/xlink" x="0px" y="0px" viewBox="0 0 256 256" enable-background="new 0 0 256 256" xml:space="preserve">
<metadata> Svg Vector Icons : http://www.onlinewebfonts.com/icon </metadata>
<g><g><g><path fill="#000000" d="M26.7,77.4V128l-2.2,1.7c-5.6,4.5-11,13-13.2,20.8c-1.7,6-1.7,16.6,0,22.5c3.4,12,11,21.1,22.1,26.7c7.3,3.6,17.7,5.2,24.6,3.5c2-0.5,3.7-0.8,3.7-0.8c0.1,0,1.3,2.3,2.7,5.1c2.2,4.4,3.3,5.9,7.6,10.2c4.3,4.4,5.7,5.4,10,7.5c11.4,5.5,23.1,5.3,34.5-0.6c5.1-2.6,12.5-10.1,15.1-15.1c7-13.5,5.9-28.2-3-40.6c-1.3-1.7-3.3-4.1-4.5-5.2l-2.2-2h62h62V94.3V26.8H136.3H26.7V77.4z M204.2,47.7c1.7,11,9.8,19.1,20.8,20.8l4.1,0.7v25v25l-4.1,0.7c-11,1.7-19.1,9.8-20.8,20.8l-0.7,4.1h-56.5H90.6l-1-2.3c-1.4-3.2-6.5-9.8-9.5-12.3c-9.1-7.7-19.6-11.3-31.3-10.6l-5.3,0.3V94.6V69.2l4-0.7c11-1.7,19.1-9.9,20.9-20.9l0.7-4h67.2h67.2L204.2,47.7z M64.6,144.6v5.5h-6.3c-6.8,0-6.9,0.1-6.9,3c0,1.1,0.2,1.3,2.1,1.3c4.1,0,9.1,3.5,11.4,8.1c1.4,2.6,1.6,8.1,0.5,11.5c-1.3,4-6.2,8.9-10.3,10.3c-4.1,1.4-10.8,1.3-14.8-0.3c-4.7-1.8-4.5-1.5-3.7-6.5c1-6.7,0.7-6.4,3.8-4.7c2.2,1.1,3.5,1.4,6.3,1.4c3.2,0,3.7-0.2,5.2-1.5c2.8-2.7,2.1-5.9-1.7-7.4c-2.4-1-5.1-1-8.6-0.1l-2.8,0.7v-1.3c0-1.5,2.5-22.4,3-24.3c0.2-1.2,0.3-1.2,11.5-1.2h11.3L64.6,144.6L64.6,144.6z M104.2,191.8v21.7l-5.4-0.2l-5.4-0.2l-0.2-16.5l-0.1-16.5h-2.4h-2.4v-5v-5h7.9h7.9V191.8L104.2,191.8z"/><path fill="#000000" d="M129.8,61.4c-5.7,1.4-9.6,3.7-14.8,8.9c-3.5,3.5-5.3,5.8-7,9c-6,11.5-7,24.8-2.7,37.1c1.4,4.1,4.8,11.1,5.4,11.1c0.2,0,1.7-1.5,3.6-3.4c11.7-11.7,32.3-11.7,44,0.1c4,4,3.6,4.1,7-2.8c3.4-7,4.3-11.4,4.3-20.3c0-6.2-0.2-8.4-1.2-11.9C163.2,69.4,146.4,57.4,129.8,61.4z M143.2,79c3.9,2,6.1,4,8,7.5c1.6,3.1,1.8,3.7,1.8,7.8c-0.1,4.1-0.2,4.8-1.8,7.8c-2,3.7-3.7,5.3-7.6,7.4c-2.3,1.2-3.4,1.4-7.2,1.4c-4.1,0.1-4.7-0.1-7.8-1.7c-3.5-1.9-5.4-4-7.5-8c-1-2-1.2-3.2-1.2-6.9c0-4.8,0.8-7.1,4-11.1c1.5-1.9,5.8-4.5,8.6-5.3C135.2,77.1,140.6,77.7,143.2,79z"/><path fill="#000000" d="M72,78.3c-12,4.3-15.4,19.1-6.6,27.9c3.4,3.5,6.6,4.7,11.9,4.7s8.4-1.3,11.9-4.7c3.5-3.4,4.7-6.6,4.7-11.9c0-5.3-1.3-8.4-4.7-11.9C84.8,78.1,77.4,76.3,72,78.3z"/><path fill="#000000" d="M190.1,78.3c-12,4.3-15.4,19.1-6.6,27.9c3.4,3.5,6.6,4.7,11.9,4.7s8.4-1.3,11.9-4.7c3.5-3.4,4.7-6.6,4.7-11.9c0-5.3-1.3-8.4-4.7-11.9C202.9,78.1,195.5,76.3,190.1,78.3z"/></g></g></g>
</svg>