<?xml version="1.0" encoding="utf-8"?>
<!-- Svg Vector Icons : http://www.onlinewebfonts.com/icon -->
<!DOCTYPE svg PUBLIC "-//W3C//DTD SVG 1.1//EN" "http://www.w3.org/Graphics/SVG/1.1/DTD/svg11.dtd">
<svg version="1.1" xmlns="http://www.w3.org/2000/svg" xmlns:xlink="http://www.w3.org/1999/xlink" x="0px" y="0px" viewBox="0 0 256 256" enable-background="new 0 0 256 256" xml:space="preserve">
<metadata> Svg Vector Icons : http://www.onlinewebfonts.com/icon </metadata>
<g><g><g><path fill="#000000" d="M60.5,18.4v8.4h16.9h16.9v-8.4V10H77.4H60.5V18.4z"/><path fill="#000000" d="M60.5,58v22.8l-3.2,1.7c-11.5,6.3-19.5,17.8-21.5,30.7c-0.5,2.9-0.6,20.6-0.5,65.7c0.2,61.4,0.2,61.7,1.3,63.2c0.6,0.8,1.7,1.9,2.5,2.5c1.4,1.1,1.9,1.1,38.2,1.1c36.3,0,36.8,0,38.2-1.1c0.8-0.6,1.9-1.7,2.5-2.5c1.1-1.4,1.1-1.8,1.3-62.9c0.1-43.5,0-62.7-0.4-65.6c-1.8-13-10-24.6-21.6-31l-3.2-1.7V58V35.3H77.4H60.5L60.5,58L60.5,58z M77.4,174.4v37.9H64.8H52.1v-37.9v-37.9h12.6h12.6V174.4z"/><path fill="#000000" d="M136.4,142.4c0,18.1,0.2,23.8,0.8,27c3.1,16.1,14.9,28.8,30.7,33l2.3,0.6v13v13l-12.5,4.2l-12.5,4.2l-0.2,4.3l-0.2,4.3h33.8h33.8l-0.2-4.3l-0.2-4.3l-12.5-4.2L187,229v-13v-13l4.6-1.4c14.8-4.6,25.7-17.4,28.5-33.3c0.4-1.9,0.6-12.3,0.6-26v-22.8h-42.1h-42.1V142.4L136.4,142.4z M203.8,149.1v12.6h-25.3h-25.3v-12.6v-12.6h25.3h25.3V149.1z"/></g></g></g>
</svg>