<?xml version="1.0" encoding="utf-8"?>
<!-- Svg Vector Icons : http://www.onlinewebfonts.com/icon -->
<!DOCTYPE svg PUBLIC "-//W3C//DTD SVG 1.1//EN" "http://www.w3.org/Graphics/SVG/1.1/DTD/svg11.dtd">
<svg version="1.1" xmlns="http://www.w3.org/2000/svg" xmlns:xlink="http://www.w3.org/1999/xlink" x="0px" y="0px" viewBox="0 0 256 256" enable-background="new 0 0 256 256" xml:space="preserve">
<metadata> Svg Vector Icons : http://www.onlinewebfonts.com/icon </metadata>
<g><g><g><path fill="#000000" d="M40.9,10.5c-1.1,0.3-2.6,1.1-3.5,1.6c-0.8,0.5-6.9,6.4-13.6,13.1C10.3,38.8,10,39.2,10,45.1c0,6.5-2.4,3.6,39.2,45.3L86.7,128l-37.4,37.5C7.4,207.4,10,204.3,10,211.1c0,5.8,0.6,6.7,14.9,20.8c13.9,13.8,14.3,14,20.2,14c6.5,0,3.6,2.4,45.4-39.2l37.5-37.4l37.5,37.4c41.8,41.8,38.8,39.2,45.6,39.2c5.8,0,6.7-0.6,20.8-14.9c13.8-13.9,14-14.3,14-20.2c0-6.5,2.4-3.6-39.2-45.4L169.3,128l37.4-37.5C248.4,48.8,246,51.7,246,45.1c0-6-0.3-6.4-14-20.2c-14.1-14.3-15-14.9-20.8-14.9c-6.8,0-3.7-2.6-45.6,39.2L128,86.7L90.7,49.4C59.6,18.3,53.1,12,51.1,11.2C48.3,9.9,43.6,9.6,40.9,10.5z"/></g></g></g>
</svg>